<mxfile host="app.diagrams.net" modified="2024-06-15T16:23:52.028Z" agent="Mozilla/5.0 (Windows NT 10.0; Win64; x64) AppleWebKit/537.36 (KHTML, like Gecko) Chrome/126.0.0.0 Safari/537.36" etag="wgWsO2S2wlwNziK32-c6" version="24.5.4" type="device">
  <diagram name="Página-1" id="56xPcTbAhgfk_wzcyqml">
    <mxGraphModel dx="1434" dy="746" grid="1" gridSize="10" guides="1" tooltips="1" connect="1" arrows="1" fold="1" page="1" pageScale="1" pageWidth="827" pageHeight="1169" math="0" shadow="0">
      <root>
        <mxCell id="0" />
        <mxCell id="1" parent="0" />
        <mxCell id="ZlQN-Xo1y-UWy3ocTEKw-79" value="" style="verticalLabelPosition=bottom;verticalAlign=top;html=1;shape=mxgraph.basic.rect;fillColor2=none;strokeWidth=1;size=20;indent=5;" parent="1" vertex="1">
          <mxGeometry x="120" y="280" width="500" height="970" as="geometry" />
        </mxCell>
        <mxCell id="ZlQN-Xo1y-UWy3ocTEKw-54" style="rounded=0;orthogonalLoop=1;jettySize=auto;html=1;entryX=0;entryY=1;entryDx=0;entryDy=0;" parent="1" source="ZlQN-Xo1y-UWy3ocTEKw-2" target="ZlQN-Xo1y-UWy3ocTEKw-51" edge="1">
          <mxGeometry relative="1" as="geometry" />
        </mxCell>
        <mxCell id="ZlQN-Xo1y-UWy3ocTEKw-55" style="rounded=0;orthogonalLoop=1;jettySize=auto;html=1;entryX=0;entryY=0.5;entryDx=0;entryDy=0;" parent="1" source="ZlQN-Xo1y-UWy3ocTEKw-2" target="ZlQN-Xo1y-UWy3ocTEKw-53" edge="1">
          <mxGeometry relative="1" as="geometry" />
        </mxCell>
        <mxCell id="ZlQN-Xo1y-UWy3ocTEKw-2" value="Alumno" style="shape=umlActor;verticalLabelPosition=bottom;verticalAlign=top;html=1;outlineConnect=0;" parent="1" vertex="1">
          <mxGeometry x="40" y="425" width="30" height="60" as="geometry" />
        </mxCell>
        <mxCell id="ZlQN-Xo1y-UWy3ocTEKw-69" style="rounded=0;orthogonalLoop=1;jettySize=auto;html=1;" parent="1" source="ZlQN-Xo1y-UWy3ocTEKw-12" target="ZlQN-Xo1y-UWy3ocTEKw-64" edge="1">
          <mxGeometry relative="1" as="geometry" />
        </mxCell>
        <mxCell id="ZlQN-Xo1y-UWy3ocTEKw-70" style="rounded=0;orthogonalLoop=1;jettySize=auto;html=1;entryX=0;entryY=1;entryDx=0;entryDy=0;" parent="1" source="ZlQN-Xo1y-UWy3ocTEKw-12" target="ZlQN-Xo1y-UWy3ocTEKw-52" edge="1">
          <mxGeometry relative="1" as="geometry" />
        </mxCell>
        <mxCell id="ZlQN-Xo1y-UWy3ocTEKw-71" style="rounded=0;orthogonalLoop=1;jettySize=auto;html=1;" parent="1" source="ZlQN-Xo1y-UWy3ocTEKw-12" target="ZlQN-Xo1y-UWy3ocTEKw-67" edge="1">
          <mxGeometry relative="1" as="geometry" />
        </mxCell>
        <mxCell id="ZlQN-Xo1y-UWy3ocTEKw-12" value="Instructor" style="shape=umlActor;verticalLabelPosition=bottom;verticalAlign=top;html=1;outlineConnect=0;" parent="1" vertex="1">
          <mxGeometry x="40" y="570" width="30" height="60" as="geometry" />
        </mxCell>
        <mxCell id="ZlQN-Xo1y-UWy3ocTEKw-56" style="rounded=0;orthogonalLoop=1;jettySize=auto;html=1;entryX=1;entryY=1;entryDx=0;entryDy=0;" parent="1" source="ZlQN-Xo1y-UWy3ocTEKw-37" target="ZlQN-Xo1y-UWy3ocTEKw-50" edge="1">
          <mxGeometry relative="1" as="geometry" />
        </mxCell>
        <mxCell id="ZlQN-Xo1y-UWy3ocTEKw-58" style="rounded=0;orthogonalLoop=1;jettySize=auto;html=1;entryX=1;entryY=0.5;entryDx=0;entryDy=0;" parent="1" source="ZlQN-Xo1y-UWy3ocTEKw-37" target="ZlQN-Xo1y-UWy3ocTEKw-53" edge="1">
          <mxGeometry relative="1" as="geometry" />
        </mxCell>
        <mxCell id="ZlQN-Xo1y-UWy3ocTEKw-68" style="rounded=0;orthogonalLoop=1;jettySize=auto;html=1;entryX=1;entryY=0.5;entryDx=0;entryDy=0;" parent="1" source="ZlQN-Xo1y-UWy3ocTEKw-37" target="ZlQN-Xo1y-UWy3ocTEKw-64" edge="1">
          <mxGeometry relative="1" as="geometry" />
        </mxCell>
        <mxCell id="ZlQN-Xo1y-UWy3ocTEKw-72" style="rounded=0;orthogonalLoop=1;jettySize=auto;html=1;" parent="1" source="ZlQN-Xo1y-UWy3ocTEKw-37" target="ZlQN-Xo1y-UWy3ocTEKw-59" edge="1">
          <mxGeometry relative="1" as="geometry" />
        </mxCell>
        <mxCell id="ZlQN-Xo1y-UWy3ocTEKw-73" style="rounded=0;orthogonalLoop=1;jettySize=auto;html=1;entryX=1;entryY=0.5;entryDx=0;entryDy=0;" parent="1" target="ZlQN-Xo1y-UWy3ocTEKw-60" edge="1" source="ZlQN-Xo1y-UWy3ocTEKw-37">
          <mxGeometry relative="1" as="geometry">
            <mxPoint x="650" y="660" as="sourcePoint" />
          </mxGeometry>
        </mxCell>
        <mxCell id="ZlQN-Xo1y-UWy3ocTEKw-74" style="rounded=0;orthogonalLoop=1;jettySize=auto;html=1;entryX=1;entryY=0.5;entryDx=0;entryDy=0;" parent="1" target="ZlQN-Xo1y-UWy3ocTEKw-61" edge="1" source="ZlQN-Xo1y-UWy3ocTEKw-37">
          <mxGeometry relative="1" as="geometry">
            <mxPoint x="660" y="660" as="sourcePoint" />
          </mxGeometry>
        </mxCell>
        <mxCell id="ZlQN-Xo1y-UWy3ocTEKw-75" style="rounded=0;orthogonalLoop=1;jettySize=auto;html=1;entryX=1;entryY=0.5;entryDx=0;entryDy=0;" parent="1" target="ZlQN-Xo1y-UWy3ocTEKw-62" edge="1" source="ZlQN-Xo1y-UWy3ocTEKw-37">
          <mxGeometry relative="1" as="geometry">
            <mxPoint x="670" y="660" as="sourcePoint" />
          </mxGeometry>
        </mxCell>
        <mxCell id="ZlQN-Xo1y-UWy3ocTEKw-76" style="rounded=0;orthogonalLoop=1;jettySize=auto;html=1;entryX=1;entryY=0.5;entryDx=0;entryDy=0;" parent="1" target="ZlQN-Xo1y-UWy3ocTEKw-63" edge="1" source="ZlQN-Xo1y-UWy3ocTEKw-37">
          <mxGeometry relative="1" as="geometry">
            <mxPoint x="670" y="660" as="sourcePoint" />
          </mxGeometry>
        </mxCell>
        <mxCell id="ZlQN-Xo1y-UWy3ocTEKw-77" style="rounded=0;orthogonalLoop=1;jettySize=auto;html=1;" parent="1" edge="1" source="ZlQN-Xo1y-UWy3ocTEKw-37">
          <mxGeometry relative="1" as="geometry">
            <mxPoint x="675" y="660" as="sourcePoint" />
            <mxPoint x="600" y="1100" as="targetPoint" />
          </mxGeometry>
        </mxCell>
        <mxCell id="ZlQN-Xo1y-UWy3ocTEKw-37" value="Administrador" style="shape=umlActor;verticalLabelPosition=bottom;verticalAlign=top;html=1;outlineConnect=0;" parent="1" vertex="1">
          <mxGeometry x="800" y="575" width="30" height="60" as="geometry" />
        </mxCell>
        <mxCell id="ZlQN-Xo1y-UWy3ocTEKw-50" value="CU2 - Gestión de clases" style="ellipse;whiteSpace=wrap;html=1;" parent="1" vertex="1">
          <mxGeometry x="460" y="420" width="140" height="70" as="geometry" />
        </mxCell>
        <mxCell id="ZlQN-Xo1y-UWy3ocTEKw-51" value="CU3 - Inscripción a clases" style="ellipse;whiteSpace=wrap;html=1;" parent="1" vertex="1">
          <mxGeometry x="130" y="330" width="140" height="70" as="geometry" />
        </mxCell>
        <mxCell id="ZlQN-Xo1y-UWy3ocTEKw-52" value="CU4 - Registro de asistencia" style="ellipse;whiteSpace=wrap;html=1;" parent="1" vertex="1">
          <mxGeometry x="130" y="510" width="140" height="70" as="geometry" />
        </mxCell>
        <mxCell id="ZlQN-Xo1y-UWy3ocTEKw-53" value="CU5 - Gestión de pagos" style="ellipse;whiteSpace=wrap;html=1;" parent="1" vertex="1">
          <mxGeometry x="130" y="420" width="140" height="70" as="geometry" />
        </mxCell>
        <mxCell id="ZlQN-Xo1y-UWy3ocTEKw-59" value="CU6 - Facturación" style="ellipse;whiteSpace=wrap;html=1;" parent="1" vertex="1">
          <mxGeometry x="460" y="620" width="140" height="70" as="geometry" />
        </mxCell>
        <mxCell id="ZlQN-Xo1y-UWy3ocTEKw-60" value="CU7 - Informes" style="ellipse;whiteSpace=wrap;html=1;" parent="1" vertex="1">
          <mxGeometry x="460" y="710" width="140" height="70" as="geometry" />
        </mxCell>
        <mxCell id="ZlQN-Xo1y-UWy3ocTEKw-61" value="CU8 - Gestión de usuarios" style="ellipse;whiteSpace=wrap;html=1;" parent="1" vertex="1">
          <mxGeometry x="460" y="800" width="140" height="70" as="geometry" />
        </mxCell>
        <mxCell id="ZlQN-Xo1y-UWy3ocTEKw-62" value="CU9 - Seguridad" style="ellipse;whiteSpace=wrap;html=1;" parent="1" vertex="1">
          <mxGeometry x="460" y="890" width="140" height="70" as="geometry" />
        </mxCell>
        <mxCell id="ZlQN-Xo1y-UWy3ocTEKw-63" value="CU10 - Integración" style="ellipse;whiteSpace=wrap;html=1;" parent="1" vertex="1">
          <mxGeometry x="460" y="980" width="140" height="70" as="geometry" />
        </mxCell>
        <mxCell id="ZlQN-Xo1y-UWy3ocTEKw-64" value="CU11 - Comunicación con Usuarios" style="ellipse;whiteSpace=wrap;html=1;" parent="1" vertex="1">
          <mxGeometry x="300" y="565" width="140" height="70" as="geometry" />
        </mxCell>
        <mxCell id="ZlQN-Xo1y-UWy3ocTEKw-65" value="CU12 - Gestión de eventos" style="ellipse;whiteSpace=wrap;html=1;" parent="1" vertex="1">
          <mxGeometry x="460" y="1070" width="140" height="70" as="geometry" />
        </mxCell>
        <mxCell id="ZlQN-Xo1y-UWy3ocTEKw-67" value="CU14 - Evaluación de desempeño" style="ellipse;whiteSpace=wrap;html=1;" parent="1" vertex="1">
          <mxGeometry x="130" y="620" width="140" height="70" as="geometry" />
        </mxCell>
        <mxCell id="ZlQN-Xo1y-UWy3ocTEKw-80" value="Academia de baile" style="text;html=1;align=center;verticalAlign=middle;whiteSpace=wrap;rounded=0;" parent="1" vertex="1">
          <mxGeometry x="320" y="280" width="120" height="30" as="geometry" />
        </mxCell>
      </root>
    </mxGraphModel>
  </diagram>
</mxfile>
